# AST/ASF file generated using VICON BodyLanguage
# -----------------------------------------------
:version 1.10
:name VICON
:units
  mass 1.0
  length 0.45
  angle deg
:documentation
   .ast/.asf automatically generated from VICON data using
   VICON BodyBuilder and BodyLanguage model FoxedUp or BRILLIANT.MOD
:root
   order TX TY TZ RX RY RZ
   axis XYZ
   position 0 0 0  
   orientation 0 0 0 
:bonedata
  begin
     id 1 
     name lhipjoint
     direction 0.541323 -0.757556 0.364798 
     length 2.47576 
     axis 0 0 0  XYZ
  end
  begin
     id 2 
     name lfemur
     direction 0.34202 -0.939693 0  
     length 7.46493  
     axis 0 0 20  XYZ
    dof rx ry rz
    limits (-160.0 20.0)
           (-70.0 70.0)
           (-60.0 70.0)
  end
  begin
     id 3 
     name ltibia
     direction 0.34202 -0.939693 0   
     length 7.73805   
     axis 0 0 20   XYZ
    dof rx
    limits (-10.0 170.0)
  end
  begin
     id 4 
     name lfoot
     direction 0.107174 -0.294458 0.949636   
     length 2.25864   
     axis -90 7.62852e-016 20   XYZ
    dof rx rz
    limits (-45.0 90.0)
           (-70.0 20.0)
  end
  begin
     id 5 
     name ltoes
     direction 1.53606e-011 -4.21934e-011 1   
     length 1.12451   
     axis -90 7.62852e-016 20   XYZ
    dof rx
    limits (-90.0 20.0)
  end
  begin
     id 6 
     name rhipjoint
     direction -0.524745 -0.766967 0.36933   
     length 2.44538  
     axis 0 0 0  XYZ 
  end
  begin
     id 7 
     name rfemur
     direction -0.34202 -0.939693 0   
     length 7.61604   
     axis 0 0 -20   XYZ
    dof rx ry rz
    limits (-160.0 20.0)
           (-70.0 70.0)
           (-70.0 60.0)
  end
  begin
     id 8 
     name rtibia
     direction -0.34202 -0.939693 0   
     length 7.61056   
     axis 0 0 -20   XYZ
    dof rx
    limits (-10.0 170.0)
 end
 begin
     id 9 
     name rfoot
     direction -0.12616 -0.346623 0.929482   
     length 2.46372  
     axis -90 -7.62852e-016 -20   XYZ
    dof rx rz
    limits (-45.0 90.0)
           (-20.0 70.0)
  end
  begin
     id 10 
     name rtoes
     direction -1.53531e-011 -4.22004e-011 1   
     length 1.21611   
     axis -90 -7.62852e-016 -20   XYZ
    dof rx
    limits (-90.0 20.0)
  end
  begin
     id 11 
     name lowerback
     direction -0.000778023 0.997293 -0.0735223   
     length 2.06139   
     axis 0 0 0   XYZ
    dof rx ry rz
    limits (-20.0 45.0)
           (-30.0 30.0)
           (-30.0 30.0)
  end
  begin
     id 12 
     name upperback
     direction 0.0222598 0.999722 -0.0078355   
     length 2.06383   
     axis 0 0 0   XYZ
    dof rx ry rz
    limits (-20.0 45.0)
           (-30.0 30.0)
           (-30.0 30.0)
  end
  begin
     id 13 
     name thorax
     direction 0.0219654 0.999405 0.0265994   
     length 2.07163   
     axis 0 0 0   XYZ
    dof rx ry rz
    limits (-20.0 45.0)
           (-30.0 30.0)
           (-30.0 30.0)
  end
  begin
     id 14 
     name lowerneck
     direction 0.0213282 0.988147 0.15202   
     length 1.75969   
     axis 0 0 0   XYZ
    dof rx ry rz
    limits (-20.0 45.0)
           (-30.0 30.0)
           (-30.0 30.0)
  end
  begin
     id 15 
     name upperneck
     direction -0.0546456 0.982624 -0.177379   
     length 1.79244   
     axis 0 0 0   XYZ
    dof rx ry rz
    limits (-20.0 45.0)
           (-30.0 30.0)
           (-30.0 30.0)
  end
  begin
     id 16
     name head
     direction -0.0199987 0.996855 -0.076686  
     length 1.80555  
     axis 0 0 0   XYZ
    dof rx ry rz
    limits (-20.0 45.0)
           (-30.0 30.0)
           (-30.0 30.0)
  end
  begin
     id 17 
     name lclavicle
     direction 0.929565 0.363219 -0.063096  
     length 3.55722  
     axis 0 0 0   XYZ
    dof ry rz
    limits (-20.0 10.0)
           (0.0 20.0)
  end
  begin
     id 18 
     name lhumerus
     direction 1 -4.48993e-011 -2.36203e-027   
     length 4.92785   
     axis 180 -30 -90   XYZ
    dof rx ry rz
    limits (-60.0 90.0)
           (-90.0 90.0)
           (-90.0 90.0)
  end
  begin
     id 19
     name lradius
     direction 1 -4.48947e-011 2.02997e-027   
     length 3.44052   
     axis 180 -30 -90   XYZ
    dof rx
    limits (-10.0 170.0)
  end
  begin
     id 20
     name lwrist
     direction 1 -4.48962e-011 1.45991e-027   
     length 1.72026   
     axis 1.49639e-024 90 90   XYZ
    dof ry
    limits (-180.0 0.0)
 end
  begin
     id 21 
     name lhand
     direction 1 -4.48984e-011 2.91906e-027   
     length 0.654326   
     axis -1.863e-015 90 90   XYZ
    dof rx rz
    limits (-90.0 90.0)
           (-45.0 45.0)
  end
  begin
     id 22 
     name lfingers
     direction 1 -4.48961e-011 5.83968e-027   
     length 0.527534   
     axis -3.72598e-015 90 90   XYZ
    dof rx
    limits (0.0 90.0)
  end
  begin
     id 23
     name lthumb
     direction 0.707107 -6.34963e-011 0.707107   
     length 0.757437   
     axis -90 45 -6.68868e-015   XYZ
    dof rx rz
    limits (-45.0 45.0)
           (-45.0 45.0)
  end
  begin
     id 24 
     name rclavicle
     direction -0.902944 0.422599 -0.0781198   
     length 3.54432  
     axis 0 0 0   XYZ 
    dof ry rz
    limits (-10.0 20.0)
           (-20.0 0.0)
  end
  begin
     id 25 
     name rhumerus
     direction -1 -4.48953e-011 -4.75835e-028  
     length 5.09181   
     axis 180 30 90   XYZ
    dof rx ry rz
    limits (-90.0 60.0)
           (-90.0 90.0)
           (-90.0 90.0)
  end
  begin
     id 26 
     name rradius
     direction -1 -4.48986e-011 -3.25889e-027   
     length 3.49865   
     axis 180 30 90   XYZ
    dof rx
    limits (-10.0 170.0)
  end
  begin
     id 27 
     name rwrist
     direction -1 -4.48963e-011 1.45989e-027   
     length 1.74933   
     axis 1.49639e-024 -90 -90   XYZ
    dof ry
    limits (-180.0 0.0)
  end
  begin
     id 28
     name rhand
     direction -1 -4.49003e-011 2.91844e-027   
     length 0.66641   
     axis -1.863e-015 -90 -90   XYZ
    dof rx rz
    limits (-90.0 90.0)
           (-45.0 45.0)
  end
  begin
     id 29
     name rfingers
     direction -1 -4.48973e-011 5.83886e-027   
     length 0.537277   
     axis -3.72598e-015 -90 -90   XYZ
    dof rx
    limits (0.0 90.0)
  end
  begin
     id 30
     name rthumb
     direction -0.707107 -6.34976e-011 0.707107   
     length 0.771425   
     axis -90 -45 6.68868e-015   XYZ
    dof rx rz
    limits (-45.0 45.0)
           (-45.0 45.0)
  end
:hierarchy
  begin
    root lhipjoint rhipjoint lowerback
    lhipjoint lfemur
    lfemur ltibia
    ltibia lfoot
    lfoot ltoes
    rhipjoint rfemur
    rfemur rtibia
    rtibia rfoot
    rfoot rtoes
    lowerback upperback
    upperback thorax
    thorax lowerneck lclavicle rclavicle
    lowerneck upperneck
    upperneck head
    lclavicle lhumerus
    lhumerus lradius
    lradius lwrist
    lwrist lhand lthumb
    lhand lfingers
    rclavicle rhumerus
    rhumerus rradius
    rradius rwrist
    rwrist rhand rthumb
    rhand rfingers
  end

#!OML:ASF H:\LiuWeirdWalks\Patient Classification 1\Patient 1\Session 1\male.ASF
:FULLY-SPECIFIED
:DEGREES
68
root 2.30328 17.7869 -29.1965 1.28208 1.65152 1.44143
lowerback 7.91627 -0.262978 -5.79222
upperback 1.93001 -0.739175 2.76876
thorax -2.32145 -0.342366 6.23573
lowerneck -18.0818 0.454976 6.58973
upperneck 32.3711 0.43896 -5.89686
head 14.0984 0.184295 -3.46844
rclavicle 9.54166e-015 -2.06736e-014
rhumerus -39.7176 -9.16387 -72.8203
rradius 36.5553
rwrist -9.86668
rhand -17.3188 -0.730869
rfingers 7.12502
rthumb 8.9277 -30.522
lclavicle 9.54166e-015 -2.06736e-014
lhumerus -34.0987 1.20378 82.3451
lradius 30.6136
lwrist 6.69182
lhand -12.0079 -2.80077
lfingers 7.12502
lthumb 14.0494 26.7044
rfemur -16.4205 -5.42138 8.27887
rtibia 77.7746
rfoot 14.248 -4.13246
rtoes -9.9742
lfemur -6.05525 3.09928 -28.8024
ltibia 23.8949
lfoot -13.5688 10.0596
ltoes -4.43891
69
root 2.30287 17.7874 -29.1939 1.32951 1.65521 1.44481
lowerback 7.92626 -0.271886 -5.81725
upperback 1.93112 -0.753514 2.7706
thorax -2.32327 -0.34939 6.25362
lowerneck -18.0168 0.48134 6.57642
upperneck 32.2577 0.48312 -5.89278
head 14.0376 0.200927 -3.4514
rclavicle -2.28602e-015 -1.98785e-014
rhumerus -39.7623 -9.14066 -72.8121
rradius 36.5637
rwrist -9.89202
rhand -17.2782 -0.670162
rfingers 7.12502
rthumb 8.9669 -30.4596
lclavicle -2.28602e-015 -1.98785e-014
lhumerus -34.0698 1.2221 82.3553
lradius 30.6226
lwrist 6.74365
lhand -11.9997 -2.76043
lfingers 7.12502
lthumb 14.0573 26.7442
rfemur -16.4541 -5.44887 8.30533
rtibia 77.8099
rfoot 14.2893 -4.1245
rtoes -9.9104
lfemur -6.08027 3.08869 -28.8122
ltibia 23.8605
lfoot -13.5799 10.0817
ltoes -4.40677
70
root 2.30234 17.788 -29.1916 1.37563 1.65176 1.45419
lowerback 7.95217 -0.272985 -5.8492
upperback 1.9294 -0.758934 2.77033
thorax -2.33815 -0.351362 6.27278
lowerneck -17.9632 0.502566 6.55488
upperneck 32.1558 0.518253 -5.87809
head 13.9837 0.214287 -3.43079
rclavicle -2.03754e-014 -7.15625e-015
rhumerus -39.8134 -9.126 -72.7987
rradius 36.5673
rwrist -9.91755
rhand -17.2367 -0.632266
rfingers 7.12502
rthumb 9.00697 -30.42
lclavicle -2.03754e-014 -7.15625e-015
lhumerus -34.0437 1.22841 82.3665
lradius 30.6369
lwrist 6.78066
lhand -12.0113 -2.69863
lfingers 7.12502
lthumb 14.0461 26.8067
rfemur -16.4917 -5.46823 8.32278
rtibia 77.8499
rfoot 14.3212 -4.10036
rtoes -9.85745
lfemur -6.10412 3.07463 -28.8288
ltibia 23.8248
lfoot -13.5816 10.1135
ltoes -4.38724
71
root 2.30166 17.7887 -29.1897 1.42289 1.64737 1.46364
lowerback 7.99793 -0.26926 -5.88091
upperback 1.92381 -0.759029 2.76916
thorax -2.36895 -0.349964 6.29079
lowerneck -17.9161 0.518624 6.53416
upperneck 32.0355 0.544759 -5.86394
head 13.9225 0.223659 -3.4114
rclavicle 1.39149e-015 3.97569e-015
rhumerus -39.8631 -9.1298 -72.78
rradius 36.5573
rwrist -9.93905
rhand -17.2011 -0.612932
rfingers 7.12502
rthumb 9.04128 -30.3992
lclavicle 1.39149e-015 3.97569e-015
lhumerus -34.0259 1.23278 82.3756
lradius 30.6715
lwrist 6.82318
lhand -12.0341 -2.62569
lfingers 7.12502
lthumb 14.0242 26.8812
rfemur -16.5347 -5.48527 8.33907
rtibia 77.8928
rfoot 14.3518 -4.06626
rtoes -9.77208
lfemur -6.1298 3.05423 -28.8448
ltibia 23.788
lfoot -13.5819 10.1468
ltoes -4.37247
72
root 2.3012 17.7895 -29.1877 1.46834 1.64342 1.48095
lowerback 8.06212 -0.265301 -5.91893
upperback 1.91418 -0.760387 2.76779
thorax -2.41392 -0.348508 6.3128
lowerneck -17.8894 0.533726 6.51727
upperneck 31.9341 0.573224 -5.86623
head 13.8746 0.232249 -3.40021
rclavicle 9.24349e-015 0
rhumerus -39.9072 -9.13389 -72.7591
rradius 36.5313
rwrist -9.95925
rhand -17.1837 -0.630219
rfingers 7.12502
rthumb 9.05809 -30.4157
lclavicle 9.24349e-015 0
lhumerus -34.02 1.26459 82.3785
lradius 30.722
lwrist 6.85251
lhand -12.0729 -2.56837
lfingers 7.12502
lthumb 13.9867 26.9411
rfemur -16.5731 -5.50429 8.34025
rtibia 77.9359
rfoot 14.3786 -4.02058
rtoes -9.68941
lfemur -6.15113 3.02451 -28.8702
ltibia 23.7495
lfoot -13.5769 10.1818
ltoes -4.3462
73
root 2.30086 17.7903 -29.186 1.51673 1.63938 1.49192
lowerback 8.13963 -0.257224 -5.94522
upperback 1.89808 -0.756153 2.76518
thorax -2.47414 -0.343535 6.32658
lowerneck -17.8659 0.543928 6.50169
upperneck 31.8446 0.594878 -5.87085
head 13.832 0.237947 -3.39187
rclavicle -3.37934e-015 -2.38542e-015
rhumerus -39.9521 -9.16655 -72.7302
rradius 36.4807
rwrist -9.94122
rhand -17.1708 -0.649971
rfingers 7.12502
rthumb 9.07055 -30.4349
lclavicle -3.37934e-015 -2.38542e-015
lhumerus -34.0252 1.30174 82.3753
lradius 30.7909
lwrist 6.8978
lhand -12.1084 -2.53741
lfingers 7.12502
lthumb 13.9525 26.9744
rfemur -16.6151 -5.52149 8.34624
rtibia 77.9783
rfoot 14.397 -3.99144
rtoes -9.62036
lfemur -6.17668 2.98951 -28.8891
ltibia 23.7117
lfoot -13.5777 10.2141
ltoes -4.30544
74
root 2.30058 17.7914 -29.1844 1.57159 1.63774 1.49865
lowerback 8.22396 -0.250295 -5.96839
upperback 1.87712 -0.753565 2.76555
thorax -2.54297 -0.338913 6.3421
lowerneck -17.8613 0.550065 6.48097
upperneck 31.7866 0.614809 -5.88445
head 13.8072 0.241362 -3.3881
rclavicle -3.08116e-015 9.54166e-015
rhumerus -39.9865 -9.20793 -72.6971
rradius 36.4035
rwrist -9.88922
rhand -17.1752 -0.675002
rfingers 7.12502
rthumb 9.06627 -30.4602
lclavicle -3.08116e-015 9.54166e-015
lhumerus -34.034 1.36315 82.3673
lradius 30.865
lwrist 6.94266
lhand -12.1481 -2.54077
lfingers 7.12502
lthumb 13.9143 26.9737
rfemur -16.6636 -5.54108 8.35519
rtibia 78.0197
rfoot 14.4105 -3.97645
rtoes -9.57221
lfemur -6.21277 2.95233 -28.9037
ltibia 23.6798
lfoot -13.5738 10.2451
ltoes -4.24922
75
root 2.30024 17.7926 -29.1832 1.63552 1.64033 1.50236
lowerback 8.30793 -0.250424 -5.98972
upperback 1.85621 -0.76018 2.76801
thorax -2.61016 -0.338936 6.35972
lowerneck -17.8738 0.564954 6.46876
upperneck 31.7394 0.646863 -5.90707
head 13.7921 0.249838 -3.38818
rclavicle 7.95139e-016 1.59028e-015
rhumerus -40.0113 -9.23097 -72.6714
rradius 36.3176
rwrist -9.8183
rhand -17.182 -0.697651
rfingers 7.12502
rthumb 9.05969 -30.4831
lclavicle 7.95139e-016 1.59028e-015
lhumerus -34.0315 1.45342 82.3499
lradius 30.9332
lwrist 6.98685
lhand -12.1823 -2.58395
lfingers 7.12502
lthumb 13.8813 26.9328
rfemur -16.721 -5.56383 8.36698
rtibia 78.0609
rfoot 14.4212 -3.98684
rtoes -9.52707
lfemur -6.26424 2.9108 -28.9155
ltibia 23.6562
lfoot -13.5707 10.2767
ltoes -4.18603
76
root 2.29969 17.794 -29.1828 1.71558 1.64375 1.48462
lowerback 8.38136 -0.252094 -5.98799
upperback 1.83525 -0.76622 2.77359
thorax -2.67194 -0.338995 6.36715
lowerneck -17.9056 0.580272 6.45081
upperneck 31.718 0.674948 -5.91258
head 13.7921 0.25846 -3.38223
rclavicle 9.83984e-015 2.14687e-014
rhumerus -40.0259 -9.25963 -72.6536
rradius 36.2248
rwrist -9.73537
rhand -17.2124 -0.744026
rfingers 7.12502
rthumb 9.0304 -30.5307
lclavicle 9.83984e-015 2.14687e-014
lhumerus -34.0124 1.54025 82.3288
lradius 30.9965
lwrist 7.03658
lhand -12.2127 -2.63033
lfingers 7.12502
lthumb 13.852 26.8884
rfemur -16.7993 -5.58473 8.40772
rtibia 78.1023
rfoot 14.4176 -4.01891
rtoes -9.22222
lfemur -6.34256 2.86346 -28.9045
ltibia 23.6427
lfoot -13.5672 10.3145
ltoes -4.11132
77
root 2.29925 17.7955 -29.1825 1.80987 1.65442 1.47024
lowerback 8.44135 -0.259473 -5.98242
upperback 1.81565 -0.778938 2.77411
thorax -2.72394 -0.342827 6.36738
lowerneck -17.9571 0.59625 6.4196
upperneck 31.7269 0.699291 -5.89292
head 13.8093 0.267546 -3.36581
rclavicle -2.98177e-015 1.98785e-014
rhumerus -40.0325 -9.28913 -72.6457
rradius 36.1293
rwrist -9.65081
rhand -17.2493 -0.807286
rfingers 7.12502
rthumb 8.99477 -30.5955
lclavicle -2.98177e-015 1.98785e-014
lhumerus -33.9897 1.62343 82.3007
lradius 31.0744
lwrist 7.12181
lhand -12.2157 -2.6558
lfingers 7.12502
lthumb 13.8491 26.8631
rfemur -16.8899 -5.61692 8.44254
rtibia 78.1439
rfoot 14.4008 -4.04943
rtoes -8.82411
lfemur -6.44 2.81203 -28.8987
ltibia 23.6361
lfoot -13.5659 10.3529
ltoes -4.02455
78
root 2.29895 17.7971 -29.1822 1.91346 1.66447 1.44805
lowerback 8.48123 -0.267731 -5.95831
upperback 1.80334 -0.790133 2.77123
thorax -2.75772 -0.346936 6.35264
lowerneck -18.0287 0.614239 6.37962
upperneck 31.7633 0.721087 -5.85019
head 13.8427 0.277848 -3.34021
rclavicle 2.39536e-014 7.15625e-015
rhumerus -40.0323 -9.31509 -72.6515
rradius 36.0417
rwrist -9.58978
rhand -17.3004 -0.909001
rfingers 7.12502
rthumb 8.94549 -30.6994
lclavicle 2.39536e-014 7.15625e-015
lhumerus -33.9524 1.69245 82.2704
lradius 31.1515
lwrist 7.20195
lhand -12.2219 -2.6518
lfingers 7.12502
lthumb 13.8432 26.8675
rfemur -16.9896 -5.6526 8.48619
rtibia 78.1839
rfoot 14.3726 -4.06632
rtoes -8.51262
lfemur -6.54924 2.75108 -28.8863
ltibia 23.6331
lfoot -13.5686 10.402
ltoes -3.93649
79
root 2.29893 17.7987 -29.1816 2.02451 1.67136 1.42824
lowerback 8.50257 -0.273519 -5.92404
upperback 1.79848 -0.796277 2.76139
thorax -2.77442 -0.349478 6.32361
lowerneck -18.1127 0.633432 6.33797
upperneck 31.8038 0.739788 -5.7934
head 13.8803 0.28851 -3.30938
rclavicle -2.99171e-014 3.18055e-014
rhumerus -40.0262 -9.35669 -72.663
rradius 35.9554
rwrist -9.5387
rhand -17.3407 -0.996316
rfingers 7.12502
rthumb 8.90654 -30.7883
lclavicle -2.99171e-014 3.18055e-014
lhumerus -33.9191 1.74056 82.2386
lradius 31.2537
lwrist 7.29585
lhand -12.2241 -2.6214
lfingers 7.12502
lthumb 13.841 26.8981
rfemur -17.0958 -5.69357 8.52436
rtibia 78.2224
rfoot 14.3415 -4.06226
rtoes -8.358
lfemur -6.66302 2.69653 -28.8778
ltibia 23.6242
lfoot -13.5714 10.4501
ltoes -3.86156
80
root 2.29915 17.8004 -29.1807 2.14419 1.67942 1.41484
lowerback 8.51223 -0.276669 -5.88657
upperback 1.79739 -0.798122 2.74638
thorax -2.78151 -0.350381 6.28649
lowerneck -18.2036 0.650936 6.30247
upperneck 31.8339 0.755516 -5.743
head 13.9148 0.297575 -3.28233
rclavicle 8.54774e-015 7.95139e-016
rhumerus -40.0144 -9.40617 -72.681
rradius 35.8745
rwrist -9.50973
rhand -17.3794 -1.08074
rfingers 7.12502
rthumb 8.86922 -30.8743
lclavicle 8.54774e-015 7.95139e-016
lhumerus -33.8898 1.77821 82.2089
lradius 31.3791
lwrist 7.3979
lhand -12.226 -2.56031
lfingers 7.12502
lthumb 13.8393 26.9593
rfemur -17.2063 -5.7438 8.55229
rtibia 78.2599
rfoot 14.3031 -4.0248
rtoes -8.48584
lfemur -6.7809 2.6419 -28.877
ltibia 23.6074
lfoot -13.5735 10.495
ltoes -3.78577
81
root 2.29944 17.8022 -29.1797 2.27106 1.69157 1.41228
lowerback 8.53488 -0.273868 -5.85726
upperback 1.78514 -0.793604 2.72995
thorax -2.80833 -0.347 6.25235
lowerneck -18.2728 0.665492 6.27621
upperneck 31.8212 0.769107 -5.70668
head 13.9256 0.304539 -3.26103
rclavicle 6.26172e-015 -8.74653e-015
rhumerus -40.0275 -9.45807 -72.6872
rradius 35.8027
rwrist -9.48232
rhand -17.3853 -1.104
rfingers 7.12502
rthumb 8.86354 -30.8978
lclavicle 6.26172e-015 -8.74653e-015
lhumerus -33.8855 1.79941 82.19
lradius 31.5243
lwrist 7.50731
lhand -12.2359 -2.48237
lfingers 7.12502
lthumb 13.8297 27.0379
rfemur -17.321 -5.80415 8.56531
rtibia 78.298
rfoot 14.2661 -3.97517
rtoes -8.84693
lfemur -6.9008 2.59178 -28.8867
ltibia 23.5794
lfoot -13.5781 10.5268
ltoes -3.69107
